<svg version="1" xmlns="http://www.w3.org/2000/svg" width="933.333" height="933.333" viewBox="0 0 700.000000 700.000000"><path d="M230.8 84.8C165.5 122.6 112 153.7 112 154c0 .9 236.4 136.4 238 136.4 1.6 0 238-135.5 238-136.4 0-.5-237.3-138-238.1-138-.2 0-53.8 31-119.1 68.8zM75.2 359.2l.3 138.2L194 565.5l118.5 68.2.3-137.1c.2-108.8-.1-137.3-1-138.2-.7-.6-47.6-27.9-104.3-60.6-56.6-32.8-109.6-63.4-117.8-68.1L75 221.1l.2 138.1zM505.8 289.8L387 358.5V634l3.8-1.9c2-1.1 55.7-31.9 119.2-68.5l115.5-66.4.3-138.1c.1-76-.1-138.1-.5-138.1-.5 0-54.2 31-119.5 68.8z"/></svg>