<svg id="Layer_1" data-name="Layer 1" xmlns="http://www.w3.org/2000/svg" viewBox="0 0 60 60"><title>-</title><path d="M47.5,7.5h-35a5,5,0,0,0-5,5v35a5,5,0,0,0,5,5h35a5,5,0,0,0,5-5v-35A5,5,0,0,0,47.5,7.5ZM43.25,21.94v.11l-5,4.93-.25.24L25.32,39.49c-.53.52-1,.87-1.12.83L15.12,45l5-9.09h0l0,0a8.73,8.73,0,0,1,.84-1L33.61,22.69l.26-.25,4.77-4.64h.1c.1,0,0,0,.1,0-.06,0,.07-.06.07-.06l.34-.2,0,0h0a3.25,3.25,0,0,1,3.75.48,2.71,2.71,0,0,1,.18,3.84C43.24,21.88,43.25,21.92,43.25,21.94Z" style="fill:#272544;fill-rule:evenodd"/></svg>