<svg id="Layer_1" data-name="Layer 1" xmlns="http://www.w3.org/2000/svg" viewBox="0 0 60 60"><title>-</title><rect x="28.12" y="27.13" width="3.75" height="13.13" style="fill:#272544"/><polygon points="23.44 40.25 26.25 40.25 26.25 27.13 22.5 27.13 23.44 40.25" style="fill:#272544;fill-rule:evenodd"/><polygon points="33.75 40.25 36.56 40.25 37.5 27.13 33.75 27.13 33.75 40.25" style="fill:#272544;fill-rule:evenodd"/><polygon points="26.48 15.88 26.21 17.75 33.79 17.75 33.52 15.88 26.48 15.88" style="fill:#272544;fill-rule:evenodd"/><path d="M47.5,7.5h-35a5,5,0,0,0-5,5v35a5,5,0,0,0,5,5h35a5,5,0,0,0,5-5v-35A5,5,0,0,0,47.5,7.5ZM39.08,42.14A2.11,2.11,0,0,1,37,44H23a2.11,2.11,0,0,1-2-1.86L19.39,25.25a1.68,1.68,0,0,1,1.7-1.87H38.91a1.68,1.68,0,0,1,1.7,1.87ZM41.25,21.5H18.75v-.93a2.81,2.81,0,0,1,2.81-2.82h2.76l.33-2.35a1.68,1.68,0,0,1,1.6-1.4h7.5a1.68,1.68,0,0,1,1.6,1.4l.33,2.35h2.76a2.81,2.81,0,0,1,2.81,2.82Z" style="fill:#272544;fill-rule:evenodd"/></svg>