<?xml version="1.0" encoding="utf-8"?>
<!-- Generator: Adobe Illustrator 22.0.1, SVG Export Plug-In . SVG Version: 6.00 Build 0)  -->
<svg version="1.1" id="Layer_1" xmlns="http://www.w3.org/2000/svg" xmlns:xlink="http://www.w3.org/1999/xlink" x="0px" y="0px"
	 viewBox="0 0 80 80" style="enable-background:new 0 0 80 80;" xml:space="preserve">
<style type="text/css">
	.st0{fill:#3298CB;}
	.st1{fill:#973693;}
	.st2{fill:#F1F1F1;}
	.st3{fill:#71BE4C;}
</style>
<title>ic-logo-color-short</title>
<polygon class="st0" points="12.7,17.6 40,1.8 67.3,17.6 40,33.3 "/>
<polygon class="st1" points="44.2,41 71.5,25.2 71.5,56.8 44.2,72.5 "/>
<path class="st2" d="M74.6,18.2c-0.8-1.3-2.5-1.8-3.8-1L40,35L9.1,17.2c-1.3-0.8-3-0.3-3.8,1c-0.8,1.3-0.3,3,1,3.8l30.9,17.8v35.6
	c0,1.5,1.2,2.8,2.8,2.8c1.5,0,2.8-1.2,2.8-2.8V39.8L73.6,22C74.9,21.2,75.4,19.6,74.6,18.2C74.6,18.2,74.6,18.2,74.6,18.2z"/>
<polygon class="st3" points="8.5,56.8 8.5,25.2 35.8,41 35.8,72.5 "/>
</svg>
