<svg id="Layer_1" data-name="Layer 1" xmlns="http://www.w3.org/2000/svg" viewBox="0 0 636.41 265.56"><title>ic-logo-color-long_HYPR_LOGO</title><polygon points="164.98 43.67 240.61 0 316.25 43.67 240.61 87.33 164.98 43.67" style="fill:#3499cc"/><polygon points="252.14 108.55 327.77 64.88 327.77 152.21 252.14 195.88 252.14 108.55" style="fill:#983794"/><polygon points="153.46 152.21 153.46 64.88 229.09 108.55 229.09 195.88 153.46 152.21" style="fill:#71bf4c"/><path d="M457.79,123" transform="translate(-21.95 -8.95)" style="fill:none;stroke:#231f20;stroke-linecap:round;stroke-miterlimit:10;stroke-width:8px"/><path d="M348.57,52.56l-86,49.65-86-49.65A6.57,6.57,0,0,0,170,63.94l86,49.66v99.3a6.58,6.58,0,0,0,13.15,0V113.6l86-49.66a6.57,6.57,0,1,0-6.57-11.38Z" transform="translate(-21.95 -8.95)" style="fill:#f2f1f1"/><path d="M128.09,51.68a6.58,6.58,0,0,0-6.58,6.57V129H35.09V58.25a6.57,6.57,0,0,0-13.14,0V212.9a6.57,6.57,0,0,0,13.14,0V142.15h86.42V212.9a6.58,6.58,0,0,0,13.15,0V58.25A6.57,6.57,0,0,0,128.09,51.68Z" transform="translate(-21.95 -8.95)" style="fill:#f2f1f1"/><path d="M463,51.68H401.88a6.57,6.57,0,0,0-6.57,6.57V212.9a6.58,6.58,0,0,0,13.15,0V142.15h54.47a45.24,45.24,0,0,0,0-90.47Zm0,77.33H408.46V64.82h54.47a32.1,32.1,0,0,1,0,64.19Z" transform="translate(-21.95 -8.95)" style="fill:#f2f1f1"/><path d="M620.21,141.59a45.23,45.23,0,0,0-7.06-89.91H552.08a6.57,6.57,0,0,0-6.57,6.57V212.9a6.57,6.57,0,1,0,13.14,0V142.15H606.3l28.88,73.17a6.57,6.57,0,1,0,12.22-4.83ZM558.65,129V64.82h54.48a32.1,32.1,0,0,1,0,64.19Z" transform="translate(-21.95 -8.95)" style="fill:#f2f1f1"/><path d="M40,274.36c-6.45,0-12-4.44-12-11.68S33.59,251,40,251a13.48,13.48,0,0,1,7.8,2.28v4.14a10.93,10.93,0,0,0-7.31-2.76c-4.44,0-7.73,3-7.73,8s3.29,8,7.73,8A10.93,10.93,0,0,0,47.84,268v4.14A13.48,13.48,0,0,1,40,274.36Z" transform="translate(-21.95 -8.95)" style="fill:#aaaaab"/><path d="M70.45,273.88h-5L59.26,265h-2.8v8.92H51.91V251.49h8.8c5.3,0,7.58,3.13,7.58,6.75a6.12,6.12,0,0,1-4.48,6.24Zm-14-12.13H60c2.83,0,3.84-1.49,3.84-3.47s-1-3.54-3.84-3.54H56.46Z" transform="translate(-21.95 -8.95)" style="fill:#aaaaab"/><path d="M93.7,273.88V260.15c0-.53.11-2,.15-2.13L93,260.15l-6,13.73h-2.8l-6-13.73c-.22-.53-.71-1.91-.78-2.13,0,.11.11,1.6.11,2.13v13.73h-4V251.49H78.4l7.39,16.38,7.35-16.38h4.7v22.39Z" transform="translate(-21.95 -8.95)" style="fill:#aaaaab"/><path d="M127.2,274.48a7.83,7.83,0,0,1-5.15-1.76,8.11,8.11,0,0,1-5.33,1.76c-4.29,0-8.25-2.17-8.25-6.46,0-2.84,1.94-4.63,4.18-6a11.34,11.34,0,0,1-1.79-5.41c0-3.28,3.06-5.7,6.83-5.7,3.51,0,6,2.12,6,4.85,0,3.28-3.32,4.92-6.27,6.68a39.78,39.78,0,0,0,4.33,5,21.75,21.75,0,0,0,.59-5.22H129v2.69h-3.51a12.65,12.65,0,0,1-1.23,5.07c1.53,1.38,2.5,1.72,3.58,1.72a3.71,3.71,0,0,0,2.65-1.46l1.27,1.64A5.5,5.5,0,0,1,127.2,274.48Zm-12.79-9.93a4.24,4.24,0,0,0-1.72,3.28c0,2.06,1.64,3.77,4.33,3.77a4,4,0,0,0,2.68-1A42.86,42.86,0,0,1,114.41,264.55Zm3.24-10.93a2.77,2.77,0,0,0-2.91,2.91,7.13,7.13,0,0,0,1.08,3.58c2.28-1.31,4.22-2.5,4.22-4.4A2.17,2.17,0,0,0,117.65,253.62Z" transform="translate(-21.95 -8.95)" style="fill:#aaaaab"/><path d="M147.09,274.33a12,12,0,0,1-8-2.8l1.05-3.58a10.13,10.13,0,0,0,6.9,3c2.24,0,4-1.12,4-3.1s-1.05-2.84-4.71-3.73c-4.7-1.16-6.56-3.66-6.56-6.87,0-3.65,2.91-6.3,7.72-6.3a11.35,11.35,0,0,1,6.72,2.2l-1,3.17a11.34,11.34,0,0,0-5.79-1.94c-2.2,0-3.5,1-3.5,2.57,0,1.31.78,2.32,3.84,3.06,5.22,1.31,7.46,3.51,7.46,7.39C155.26,272.24,151.31,274.33,147.09,274.33Z" transform="translate(-21.95 -8.95)" style="fill:#aaaaab"/><path d="M174.37,273.88l-2.28-5.52H163l-2.27,5.52h-4.41l9.52-22.39h3.54l9.52,22.39Zm-6.79-16.83-3.33,8.13h6.61Z" transform="translate(-21.95 -8.95)" style="fill:#aaaaab"/><path d="M181.72,273.88V251.49h4.55v18.84h10v3.55Z" transform="translate(-21.95 -8.95)" style="fill:#aaaaab"/><path d="M199.22,273.88V251.49h14.59V255h-10v5.27h8.17v3.54h-8.17v6.49h10v3.55Z" transform="translate(-21.95 -8.95)" style="fill:#aaaaab"/><path d="M224.66,274.33a12,12,0,0,1-7.94-2.8l1-3.58a10.13,10.13,0,0,0,6.9,3c2.24,0,4-1.12,4-3.1s-1.05-2.84-4.7-3.73c-4.71-1.16-6.57-3.66-6.57-6.87,0-3.65,2.91-6.3,7.72-6.3a11.32,11.32,0,0,1,6.72,2.2l-1,3.17A11.34,11.34,0,0,0,225,254.4c-2.21,0-3.51,1-3.51,2.57,0,1.31.78,2.32,3.84,3.06,5.23,1.31,7.46,3.51,7.46,7.39C232.83,272.24,228.88,274.33,224.66,274.33Z" transform="translate(-21.95 -8.95)" style="fill:#aaaaab"/><path d="M263.21,273.88V260.15c0-.53.11-2,.15-2.13l-.83,2.13-6,13.73h-2.8l-6-13.73c-.22-.53-.71-1.91-.78-2.13,0,.11.11,1.6.11,2.13v13.73h-4V251.49h4.85l7.39,16.38,7.35-16.38h4.7v22.39Z" transform="translate(-21.95 -8.95)" style="fill:#aaaaab"/><path d="M288.17,273.88l-2.28-5.52h-9.07l-2.27,5.52h-4.4l9.51-22.39h3.55l9.51,22.39Zm-6.79-16.83-3.32,8.13h6.6Z" transform="translate(-21.95 -8.95)" style="fill:#aaaaab"/><path d="M311.3,273.88,299.59,259.1v14.78h-4.07V251.49h3.17l11.72,14.78V251.49h4.06v22.39Z" transform="translate(-21.95 -8.95)" style="fill:#aaaaab"/><path d="M335.29,273.88,333,268.36H324l-2.27,5.52h-4.41l9.52-22.39h3.54l9.52,22.39Zm-6.79-16.83-3.32,8.13h6.61Z" transform="translate(-21.95 -8.95)" style="fill:#aaaaab"/><path d="M352,274.51c-6.45,0-11.9-4.59-11.9-11.83S345.74,251,352.27,251a14,14,0,0,1,8,2.28v4.14a11.14,11.14,0,0,0-7.5-2.76c-4.66,0-7.91,3.06-7.91,8.21s3.17,8.21,7.65,8.21a9.5,9.5,0,0,0,4.33-.93v-4.37h-4v-3.36h8.32v9.89A23,23,0,0,1,352,274.51Z" transform="translate(-21.95 -8.95)" style="fill:#aaaaab"/><path d="M366.08,273.88V251.49h14.59V255h-10v5.27h8.17v3.54h-8.17v6.49h10v3.55Z" transform="translate(-21.95 -8.95)" style="fill:#aaaaab"/><path d="M405.07,273.88V260.15c0-.53.11-2,.15-2.13l-.82,2.13-6,13.73h-2.8l-6-13.73c-.22-.53-.7-1.91-.78-2.13,0,.11.11,1.6.11,2.13v13.73h-4V251.49h4.85l7.39,16.38,7.35-16.38h4.7v22.39Z" transform="translate(-21.95 -8.95)" style="fill:#aaaaab"/><path d="M414.17,273.88V251.49h14.59V255h-10v5.27h8.17v3.54h-8.17v6.49h10v3.55Z" transform="translate(-21.95 -8.95)" style="fill:#aaaaab"/><path d="M448.8,273.88,437.08,259.1v14.78H433V251.49h3.17l11.71,14.78V251.49H452v22.39Z" transform="translate(-21.95 -8.95)" style="fill:#aaaaab"/><path d="M467,255v18.85h-4.55V255h-7.58v-3.54h19.71V255Z" transform="translate(-21.95 -8.95)" style="fill:#aaaaab"/><path d="M490.48,274.33a12,12,0,0,1-8-2.8l1-3.58a10.18,10.18,0,0,0,6.91,3c2.24,0,3.95-1.12,3.95-3.1s-1-2.84-4.7-3.73c-4.7-1.16-6.57-3.66-6.57-6.87,0-3.65,2.91-6.3,7.73-6.3a11.29,11.29,0,0,1,6.71,2.2l-1,3.17a11.28,11.28,0,0,0-5.78-1.94c-2.2,0-3.51,1-3.51,2.57,0,1.31.79,2.32,3.85,3.06,5.22,1.31,7.46,3.51,7.46,7.39C498.65,272.24,494.69,274.33,490.48,274.33Z" transform="translate(-21.95 -8.95)" style="fill:#aaaaab"/><path d="M513.54,274.51c-6.87,0-12.21-5-12.21-11.83s5.34-11.82,12.21-11.82,12.09,5,12.09,11.82S520.37,274.51,513.54,274.51Zm0-20c-4.48,0-7.43,3.35-7.43,8.2s2.95,8.21,7.43,8.21,7.31-3.35,7.31-8.21S517.94,254.48,513.54,254.48Z" transform="translate(-21.95 -8.95)" style="fill:#aaaaab"/><path d="M529.51,273.88V251.49h4.55v18.84h10v3.55Z" transform="translate(-21.95 -8.95)" style="fill:#aaaaab"/><path d="M556.19,274.51c-5.9,0-10.3-3.39-10.3-11V251.49h4.62v11.9c0,4.85,2.09,7.2,5.75,7.2s5.75-2.35,5.75-7.2v-11.9h4.44v12.05C566.45,271.12,562.08,274.51,556.19,274.51Z" transform="translate(-21.95 -8.95)" style="fill:#aaaaab"/><path d="M581.45,255v18.85h-4.56V255h-7.57v-3.54H589V255Z" transform="translate(-21.95 -8.95)" style="fill:#aaaaab"/><path d="M591.89,273.88V251.49h4.56v22.39Z" transform="translate(-21.95 -8.95)" style="fill:#aaaaab"/><path d="M612.49,274.51c-6.87,0-12.2-5-12.2-11.83s5.33-11.82,12.2-11.82,12.09,5,12.09,11.82S619.32,274.51,612.49,274.51Zm0-20c-4.48,0-7.43,3.35-7.43,8.2s3,8.21,7.43,8.21,7.31-3.35,7.31-8.21S616.89,254.48,612.49,254.48Z" transform="translate(-21.95 -8.95)" style="fill:#aaaaab"/><path d="M644.24,273.88,632.53,259.1v14.78h-4.07V251.49h3.17l11.72,14.78V251.49h4.07v22.39Z" transform="translate(-21.95 -8.95)" style="fill:#aaaaab"/></svg>