<svg id="Layer_1" data-name="Layer 1" xmlns="http://www.w3.org/2000/svg" viewBox="0 0 60 60"><title>ic</title><path d="M43.73,8,27.15,4a1.13,1.13,0,0,0-1.28.72L19.55,20.8l2.11.76,6-15.26L42.06,10c-.9,2.79-3,8.62-5.09,14-1.79,4.73-2.82,6.35-4.78,6.68h0c-4,.56-3.93-4.54-3.93-4.54L15.48,21c-.9,5.75,3.52,7.14,3.52,7.14l9.35,4.25a7.31,7.31,0,0,0,3,.62c4.28-.1,5.78-3.21,7.67-8.19,2.72-7.19,5.49-15.26,5.51-15.34a1.11,1.11,0,0,0-.1-.91A1.13,1.13,0,0,0,43.73,8Z" style="fill:#f1f1f1"/><path d="M36.92,15a1,1,0,0,0,.3,0,1.12,1.12,0,0,0,.29-2.2l-4.87-1.51a1.12,1.12,0,0,0-.59,2.17Zm0,0" style="fill:#f1f1f1"/><path d="M29.32,16.64A1.12,1.12,0,0,0,30,18.06l4.84,1.73a1,1,0,0,0,.35.06,1.12,1.12,0,0,0,.36-2.19l-4.84-1.73a1.12,1.12,0,0,0-1.42.71Zm0,0" style="fill:#f1f1f1"/><path d="M28.89,20.62a1.12,1.12,0,1,0-.7,2.13L33,24.47a1.12,1.12,0,0,0,.35.06,1.12,1.12,0,0,0,.35-2.19Zm0,0" style="fill:#f1f1f1"/><path d="M28.71,10.05a1.21,1.21,0,1,1-1.25,1.21,1.23,1.23,0,0,1,1.25-1.21Zm0,0" style="fill:#f1f1f1"/><path d="M27,14.55A1.21,1.21,0,1,1,27,17a1.21,1.21,0,1,1,0-2.42Zm0,0" style="fill:#f1f1f1"/><path d="M25.07,19.19a1.21,1.21,0,1,1-1.25,1.21,1.22,1.22,0,0,1,1.25-1.21Zm0,0" style="fill:#f1f1f1"/></svg>