<svg id="Layer_1" data-name="Layer 1" xmlns="http://www.w3.org/2000/svg" viewBox="0 0 60 60"><title>ic</title><path d="M36.92,22.55a7.14,7.14,0,0,1-1.56,2.68l5.32,7.43A16.3,16.3,0,0,0,46,23.56Z" style="fill:#f1f1f1"/><path d="M31.49,13.12a7.32,7.32,0,0,1,5.76,6.47l9.1,1c0-.11,0-.21,0-.31A16.37,16.37,0,0,0,31.49,4Z" style="fill:#f1f1f1"/><path d="M24.61,15.38a7.28,7.28,0,0,1,3.91-2.26V4a16.35,16.35,0,0,0-11.79,6.74Z" style="fill:#f1f1f1"/><path d="M33,27a7.29,7.29,0,0,1-10.26-6.68A7,7,0,0,1,23.11,18L15.22,13.3A16.32,16.32,0,0,0,30,36.65a16.08,16.08,0,0,0,8.26-2.26Z" style="fill:#f1f1f1"/></svg>