<svg id="Layer_1" data-name="Layer 1" xmlns="http://www.w3.org/2000/svg" viewBox="0 0 60 60"><title>ic-settings</title><path d="M32.71,22.17l2-.44.21-3.11L33,17.92l-.66-2.6,1.34-1.52L32,11.16l-1.94.54L28,10l.2-2L25.33,6.8,24.08,8.39,21.4,8.2l-1-1.74-3,.76-.08,2L15,10.66l-1.85-.81-2,2.4,1.12,1.68-1,2.49-2,.43L9.06,20l1.9.7.65,2.6-1.34,1.52,1.66,2.64,1.94-.54,2.06,1.72-.2,2,2.9,1.17,1.25-1.58,2.68.19,1,1.74,3-.76.09-2L29,27.93l1.85.8,2-2.39-1.11-1.68Zm-6.2.81-.1.13a5.91,5.91,0,0,1-2.93,1.83l-.16,0a5.81,5.81,0,0,1-3.45-.24l-.15-.06a5.84,5.84,0,0,1-2.65-2.21L17,22.32A5.81,5.81,0,0,1,16.14,19l0-.16a5.79,5.79,0,0,1,1.29-3.21l.1-.12a5.86,5.86,0,0,1,2.93-1.84l.16,0a5.81,5.81,0,0,1,3.45.24l.15.06a5.8,5.8,0,0,1,2.64,2.21l.1.14a5.9,5.9,0,0,1,.84,3.35l0,.16A5.87,5.87,0,0,1,26.51,23Z" style="fill:#f1f1f1"/><path d="M49.37,18.28l2.08-.22.45-2.13-1.81-1-.26-1.78,1.46-1.5-1-1.93L48.2,10l-1.34-1.2L47,6.76l-2-.82L43.65,7.55l-1.81-.07L40.62,5.79l-2.08.68V8.56L37.13,9.67l-2-.5L34,11l1.34,1.6-.37,1.77L33,15.29l.31,2.16,2,.36.85,1.59-.85,1.91L37,22.77l1.8-1.05,1.67.67.58,2,2.18.08.71-2L45.68,22l1.74,1.17,1.71-1.35-.72-1.95Zm-3.69-.63-.07.09A4.07,4.07,0,0,1,43.54,19l-.11,0A4.12,4.12,0,0,1,41,18.89l-.1,0A4.12,4.12,0,0,1,39,17.29l-.06-.1a4.14,4.14,0,0,1-.59-2.36v-.11a4.14,4.14,0,0,1,.91-2.26l.07-.09a4.19,4.19,0,0,1,2.06-1.29l.12,0a4.09,4.09,0,0,1,2.42.17l.1,0a4.13,4.13,0,0,1,1.87,1.56l.06.1a4.09,4.09,0,0,1,.6,2.36v.11A4.14,4.14,0,0,1,45.68,17.65Z" style="fill:#f1f1f1"/></svg>