<svg id="Layer_1" data-name="Layer 1" xmlns="http://www.w3.org/2000/svg" viewBox="0 0 60 60"><title>ic</title><polygon id="_Path_" data-name="&lt;Path&gt;" points="35.64 32.86 35.64 32.86 35.64 32.86 35.64 32.86" style="fill:#f1f1f1"/><path id="_Compound_Path_" data-name="&lt;Compound Path&gt;" d="M41,18.42V5c0-.33-.25-.54-.64-.54H18.87c-.39,0-.71.21-.71.54V30.67a.7.7,0,0,0,.71.64h8.87c1.44-1.26,2.85-2.73,4.27-4.13C35,24.26,37.92,21.28,41,18.42ZM37.66,9c0,.46-.19.84-.44.84H21.9c-.25,0-.44-.38-.44-.84v-.1c0-.46.19-.84.44-.84H37.22c.25,0,.44.38.44.84Zm0,4.05c0,.46-.19.84-.44.84H21.9c-.25,0-.44-.38-.44-.84v-.09c0-.47.19-.84.44-.84H37.22c.25,0,.44.37.44.84Zm0,4.05c0,.46-.19.84-.44.84H21.9c-.25,0-.44-.38-.44-.84V17c0-.47.19-.84.44-.84H37.22c.25,0,.44.37.44.84Z" style="fill:#f1f1f1"/><path id="_Path_2" data-name="&lt;Path&gt;" d="M45.39,21.38A1.72,1.72,0,0,0,45.28,19a2.06,2.06,0,0,0-2.37-.3h0l0,0-.22.12s-.08,0,0,0h-.13l-3,2.92-.17.16-8,7.74a6.27,6.27,0,0,0-.53.61h0L27.66,36l5.73-3c.06,0,.37-.2.7-.52l8-7.74.15-.16,3.17-3.1v-.07A.32.32,0,0,0,45.39,21.38Z" style="fill:#f1f1f1"/></svg>