<svg id="Layer_1" data-name="Layer 1" xmlns="http://www.w3.org/2000/svg" viewBox="0 0 60 60"><title>ic-warehouse</title><path d="M51.07,28.14H42.44a.43.43,0,0,0-.42.37l-.86-.09a.48.48,0,0,1-.45-.44v-22l1.19-.83h.34a.22.22,0,0,0,.22-.22v-.8a.21.21,0,0,0-.22-.21H36.35a.21.21,0,0,0-.22.21v.8a.11.11,0,0,0,0,.08.22.22,0,0,0,.2.14h.39l1.14.79V25.79a5.63,5.63,0,0,0-1.09-1.45,5.72,5.72,0,0,0-1.69-1.1,2.44,2.44,0,0,0-.11-.32L28.47,9.75c-.71-1.43-2-2.9-3.62-2.9h-8.4a2.91,2.91,0,0,0-2.9,2.9v9.5a1.46,1.46,0,0,0-1.22,1.43v2.4a5.7,5.7,0,0,0-2.1,1.26A5.57,5.57,0,0,0,8.5,28.27H9.82a4.29,4.29,0,0,0,7.33,3.17,3.08,3.08,0,0,0,.3-.33,1.92,1.92,0,0,1,.13-.17H29.45a5,5,0,0,0,.43.5,4.3,4.3,0,0,0,6.85-1.05h5.34a.41.41,0,0,0,.37.23h8.63a.43.43,0,0,0,.43-.43V28.57A.43.43,0,0,0,51.07,28.14Zm-10.36-23h.65l-.65.45ZM31.29,19.45,29.24,17l.52-.3a.15.15,0,0,0,.06-.2l-.19-.32a.14.14,0,0,0-.19,0l-3.57,2.08a.15.15,0,0,0-.05.2l.18.31a.15.15,0,0,0,.2,0l1.9-1.11,3,3.78H25.08l-.46-1h0l0,0a1.14,1.14,0,0,0-.1-.19s0,0,0-.05l-.11-.18L24.31,20a1.13,1.13,0,0,0-.1-.13l-.07-.08-.1-.11L24,19.59l-.11-.09-.1-.05a.41.41,0,0,0-.11-.07l-.13-.05-.09,0-.25,0H18l-.8-4a.61.61,0,0,0-.56-.56h-.57a.56.56,0,0,0-.56.56v3.9H15V9.75A1.46,1.46,0,0,1,16.45,8.3h8.4c1,0,1.93,1.3,2.32,2.09l4.48,9.06ZM37.88,5.53l-.6-.42h.6Zm1.67,21.16H39V5.11h.51Z" style="fill:#f1f1f1;fill-rule:evenodd"/></svg>