<svg id="Layer_1" data-name="Layer 1" xmlns="http://www.w3.org/2000/svg" viewBox="0 0 60 60"><title>_</title><path d="M53.45,12.1,25.13,5.27A1.93,1.93,0,0,0,23,6.5L12.16,33.93l3.6,1.31L26,9.16,50.6,15.44c-1.54,4.77-5.19,14.71-8.7,24-3,8.08-4.81,10.85-8.16,11.41h0C26.9,51.76,27,43.05,27,43.05L5.21,34.24c-1.55,9.83,6,12.19,6,12.19l16,7.26a12.39,12.39,0,0,0,5.21,1.06c7.31-.17,9.88-5.48,13.1-14,4.65-12.29,9.37-26.07,9.42-26.21a1.93,1.93,0,0,0-1.46-2.46Z" style="fill:#272544"/><path d="M41.82,24.07a2.24,2.24,0,0,0,.51.07,1.92,1.92,0,0,0,.5-3.77L34.52,17.8a1.92,1.92,0,1,0-1,3.7Zm0,0" style="fill:#272544"/><path d="M28.83,26.83A1.93,1.93,0,0,0,30,29.26l8.27,2.95a1.8,1.8,0,0,0,.6.1,1.92,1.92,0,0,0,.62-3.74l-8.27-2.95a1.92,1.92,0,0,0-2.43,1.21Zm0,0" style="fill:#272544"/><path d="M28.1,33.63a1.91,1.91,0,1,0-1.19,3.64l8.29,2.94a1.76,1.76,0,0,0,.6.1A1.94,1.94,0,0,0,37.62,39a1.92,1.92,0,0,0-1.23-2.42Zm0,0" style="fill:#272544"/><path d="M27.8,15.57a2.07,2.07,0,1,1-2.13,2.06,2.1,2.1,0,0,1,2.13-2.06Zm0,0" style="fill:#272544"/><path d="M24.79,23.25a2.07,2.07,0,1,1-2.13,2.07,2.11,2.11,0,0,1,2.13-2.07Zm0,0" style="fill:#272544"/><path d="M21.58,31.18a2.07,2.07,0,1,1-2.13,2.07,2.11,2.11,0,0,1,2.13-2.07Zm0,0" style="fill:#272544"/></svg>