<svg id="Layer_1" data-name="Layer 1" xmlns="http://www.w3.org/2000/svg" viewBox="0 0 60 60"><title>_</title><path d="M40.57,33.4a10.91,10.91,0,0,1-2.38,4.09l8.13,11.35a24.88,24.88,0,0,0,8.18-13.9Z" style="fill:#272544"/><path d="M32.28,19a11.16,11.16,0,0,1,8.79,9.88L55,30.41c0-.15,0-.3,0-.47A25,25,0,0,0,32.28,5.06Z" style="fill:#272544"/><path d="M21.77,22.45a11,11,0,0,1,6-3.45V5.06a25,25,0,0,0-18,10.3Z" style="fill:#272544"/><path d="M34.51,40.15a11,11,0,0,1-4.51,1A11.18,11.18,0,0,1,18.83,29.94a10.85,10.85,0,0,1,.64-3.57l-12-7.1a25,25,0,0,0,35.2,32.22Z" style="fill:#272544"/></svg>