<svg id="Layer_1" data-name="Layer 1" xmlns="http://www.w3.org/2000/svg" viewBox="0 0 60 60"><title>_</title><path d="M32.6,33.75l2.3-.51.25-3.64L33,28.78l-.76-3L33.75,24l-1.93-3.09-2.27.63-2.41-2,.23-2.35L24,15.8l-1.46,1.86-3.13-.22-1.19-2-3.54.88-.09,2.36-2.66,1.66-2.16-.94L7.42,22.16l1.3,2L7.55,27l-2.3.51L5,31.18,7.21,32,8,35,6.41,36.8l1.94,3.09,2.26-.63,2.41,2-.23,2.35L16.17,45l1.46-1.85,3.13.22,1.19,2,3.54-.88.1-2.36,2.65-1.66,2.16.94,2.34-2.8-1.31-2Zm-7.24,1-.11.14A6.83,6.83,0,0,1,21.83,37l-.19.05a6.82,6.82,0,0,1-4-.28l-.18-.07a6.79,6.79,0,0,1-3.09-2.59l-.1-.16a6.83,6.83,0,0,1-1-3.91l0-.19a6.82,6.82,0,0,1,1.51-3.75l.12-.14a6.91,6.91,0,0,1,3.42-2.15l.19,0a6.82,6.82,0,0,1,4,.28l.18.07a6.81,6.81,0,0,1,3.08,2.59l.11.16a6.9,6.9,0,0,1,1,3.91l0,.19A6.75,6.75,0,0,1,25.36,34.7Z" style="fill:#272544"/><path d="M52.05,29.21,54.48,29,55,26.47l-2.11-1.22-.3-2.08,1.7-1.75-1.2-2.26-2.4.43-1.57-1.4.17-2.43-2.36-.95-1.56,1.87-2.1-.07-1.44-2-2.42.79v2.44l-1.65,1.3-2.37-.59-1.34,2.16,1.57,1.86-.44,2.06L33,25.72l.36,2.52,2.4.42,1,1.86-1,2.23,1.89,1.7,2.11-1.23,2,.79.67,2.34,2.55.09.83-2.3,2-.65,2,1.37,2-1.57L50.93,31Zm-4.3-.74-.09.11a4.74,4.74,0,0,1-2.41,1.5l-.13,0a4.84,4.84,0,0,1-2.84-.2l-.12-.05A4.82,4.82,0,0,1,40,28.05l-.08-.12a4.89,4.89,0,0,1-.69-2.75l0-.13a4.67,4.67,0,0,1,1.06-2.64l.08-.1a4.87,4.87,0,0,1,2.41-1.51l.13,0a4.8,4.8,0,0,1,2.83.2l.12.05a4.73,4.73,0,0,1,2.18,1.82l.07.11a4.71,4.71,0,0,1,.69,2.76v.13A5,5,0,0,1,47.75,28.47Z" style="fill:#272544"/></svg>