<svg id="Layer_1" data-name="Layer 1" xmlns="http://www.w3.org/2000/svg" viewBox="0 0 60 60"><title>_</title><polygon id="_Path_" data-name="&lt;Path&gt;" points="37.77 50.02 37.77 50.02 37.77 50.02 37.77 50.02" style="fill:#272544"/><path id="_Compound_Path_" data-name="&lt;Compound Path&gt;" d="M46.2,27.12V5.85c0-.52-.39-.85-1-.85h-34c-.61,0-1.11.33-1.11.85V46.54a1.1,1.1,0,0,0,1.11,1H25.24c2.29-2,4.53-4.34,6.78-6.55C36.74,36.38,41.38,31.65,46.2,27.12ZM41,12.1c0,.74-.31,1.33-.7,1.33H16c-.39,0-.7-.59-.7-1.33V12c0-.74.31-1.34.7-1.34h24.3c.39,0,.7.6.7,1.34Zm0,6.42c0,.74-.31,1.34-.7,1.34H16c-.39,0-.7-.6-.7-1.34v-.14c0-.73.31-1.33.7-1.33h24.3c.39,0,.7.6.7,1.33ZM41,25c0,.74-.31,1.34-.7,1.34H16c-.39,0-.7-.6-.7-1.34v-.14c0-.74.31-1.34.7-1.34h24.3c.39,0,.7.6.7,1.34Z" style="fill:#272544"/><path id="_Path_2" data-name="&lt;Path&gt;" d="M53.23,31.81A2.71,2.71,0,0,0,53.05,28a3.25,3.25,0,0,0-3.75-.48h0l0,0-.34.2s-.13,0-.07.06c-.09,0,0,0-.1,0h-.1l-4.77,4.64-.26.25L30.88,45a8.73,8.73,0,0,0-.84,1l0,0h0L25.12,55l9.08-4.68c.1,0,.59-.31,1.12-.83L48,37.22l.25-.24,5-4.93v-.11S53.24,31.88,53.23,31.81Z" style="fill:#272544"/></svg>