<svg id="Layer_1" data-name="Layer 1" xmlns="http://www.w3.org/2000/svg" viewBox="0 0 60 60"><title>_</title><path d="M54.5,41.45h-10a.51.51,0,0,0-.49.44l-1-.11a.56.56,0,0,1-.53-.51V15.64l1.39-1h.4a.25.25,0,0,0,.25-.25V13.5a.26.26,0,0,0-.25-.26H37.38a.26.26,0,0,0-.25.26v.92a.18.18,0,0,0,0,.1.23.23,0,0,0,.23.15h.46l1.32.93V38.72a6.37,6.37,0,0,0-3.23-3,2.14,2.14,0,0,0-.13-.38L28.22,20.07C27.4,18.41,25.86,16.7,24,16.7H14.24a3.38,3.38,0,0,0-3.37,3.37V31.12a1.69,1.69,0,0,0-1.41,1.66v2.8A6.34,6.34,0,0,0,7,37,6.46,6.46,0,0,0,5,41.6H6.53a5,5,0,0,0,8.53,3.69,4,4,0,0,0,.34-.38c.06-.06.11-.14.16-.2h13.8a4.52,4.52,0,0,0,.5.58,5,5,0,0,0,7.07,0,4.71,4.71,0,0,0,.89-1.22H44a.51.51,0,0,0,.44.27h10a.5.5,0,0,0,.5-.5V42A.51.51,0,0,0,54.5,41.45Zm-12-26.78h.76l-.76.54Zm-11,16.68-2.38-2.8.61-.36a.17.17,0,0,0,.06-.23l-.21-.36a.18.18,0,0,0-.24-.06L25.2,30a.16.16,0,0,0-.06.23l.21.36a.16.16,0,0,0,.23.06l2.21-1.29,3.55,4.39H24.28l-.53-1.13h0s0,0,0,0l-.11-.22,0-.05-.13-.21L23.39,32l-.12-.16-.08-.09-.12-.12L23,31.52l-.13-.11-.11-.06-.13-.08-.16-.05-.1,0a1.43,1.43,0,0,0-.29,0h-6l-.93-4.59c-.07-.35-.29-.66-.65-.66h-.66a.67.67,0,0,0-.66.66V31.1h-.61v-11a1.69,1.69,0,0,1,1.68-1.68H24c1.16,0,2.24,1.51,2.7,2.43l5.21,10.53Zm7.66-16.19-.7-.49h.7ZM41.1,39.77h-.59V14.67h.59Z" style="fill:#272544;fill-rule:evenodd"/></svg>